<svg version="1.1" id="Layer_1" xmlns="http://www.w3.org/2000/svg" xmlns:xlink="http://www.w3.org/1999/xlink" x="0px" y="0px"
	 width="100%" viewBox="0 0 512 512" enable-background="new 0 0 512 512" xml:space="preserve">
<path fill="#000000" opacity="1.000000" stroke="none" 
	d="
M513.000000,389.531342 
	C508.059204,395.129578 504.770905,395.802948 498.356323,392.639130 
	C488.207886,387.633667 478.196869,382.343658 467.977539,377.490326 
	C462.781006,375.022369 460.618805,371.222015 460.640045,365.667114 
	C460.704407,348.835083 460.513245,332.000488 460.761017,315.171844 
	C460.829407,310.525452 459.388855,309.016022 454.778992,309.259949 
	C448.131348,309.611725 441.435028,309.634064 434.790375,309.255188 
	C429.866364,308.974457 428.117279,310.342133 428.221497,315.590698 
	C428.555511,332.416260 428.251526,349.253418 428.387787,366.084564 
	C428.431702,371.504883 426.420959,375.267670 421.516754,377.668671 
	C411.656097,382.496338 401.878723,387.493866 392.037354,392.361328 
	C388.032776,394.341980 383.891815,395.569611 379.779083,392.674988 
	C377.044708,390.750458 375.612915,388.150452 375.620453,384.624512 
	C375.683441,355.126556 375.085785,325.612701 375.894409,296.136780 
	C376.304688,281.181458 384.161804,269.336670 397.505249,261.953064 
	C400.880402,260.085449 401.977875,257.964691 401.681549,254.454910 
	C401.499908,252.303772 401.308167,250.059052 401.710693,247.969986 
	C403.156036,240.469070 399.205200,236.061157 393.731323,231.811279 
	C370.286804,213.609131 347.061127,195.125412 323.710327,176.802063 
	C314.968109,169.942032 306.042969,163.314316 297.334656,156.412369 
	C295.128082,154.663528 293.105225,153.921616 290.506012,155.088150 
	C290.212555,155.219849 289.829865,155.314819 289.529816,155.246231 
	C279.495636,152.951981 274.149445,159.796310 268.142944,165.848251 
	C242.903595,191.278366 217.525665,216.571121 192.142151,241.857635 
	C189.791840,244.198975 188.810669,246.263382 189.121368,249.992142 
	C191.102570,273.769562 183.804657,294.489410 167.178680,311.735657 
	C165.177200,313.811829 164.292480,315.921967 164.297485,318.806152 
	C164.366562,358.636841 164.417953,398.467987 164.245132,438.298035 
	C164.224731,443.000610 166.078735,443.727478 170.157196,443.719452 
	C223.320282,443.614685 276.483643,443.645386 329.646942,443.658051 
	C337.431946,443.659912 341.100159,445.662201 342.780365,451.032104 
	C343.311432,452.729309 343.320435,454.634186 343.325470,456.444702 
	C343.365936,470.943665 343.248505,485.443909 343.407379,499.941254 
	C343.456635,504.436005 342.462982,508.476776 340.096497,512.638428 
	C227.122452,513.000000 114.244911,513.000000 1.000000,513.000000 
	C1.000000,491.647186 1.000000,470.292236 1.264971,448.330475 
	C4.348071,444.424438 8.111287,443.628601 12.207900,443.633362 
	C25.869471,443.649292 39.535793,443.434387 53.190174,443.748230 
	C58.171646,443.862701 59.787910,442.500885 59.758728,437.342133 
	C59.551380,400.690247 59.572014,364.036346 59.712257,327.383850 
	C59.740643,319.965729 60.296082,312.677490 53.061275,307.808350 
	C52.159641,307.201508 51.712330,305.941498 51.002785,305.024139 
	C34.952927,284.273529 30.927647,261.124207 37.376221,235.964920 
	C41.881481,218.387527 51.931755,204.473404 66.411430,193.804245 
	C75.479507,187.122528 85.850311,182.651611 96.873909,180.985382 
	C103.556099,179.975357 108.502533,177.644989 113.163101,172.937775 
	C141.059738,144.761978 168.967773,116.590714 197.348618,88.906548 
	C203.295532,83.105598 205.134552,76.829124 205.712769,69.200691 
	C207.141815,50.346840 215.463150,34.655788 228.786011,21.538984 
	C240.000458,10.498004 253.712204,4.160254 269.000000,1.000000 
	C278.687561,1.000000 288.375122,1.000000 298.757294,1.206868 
	C300.342896,1.810558 301.199554,2.335154 302.129974,2.585319 
	C320.583954,7.547085 335.642853,17.457401 346.465454,33.341015 
	C356.089539,47.465637 360.620941,63.169315 360.374390,80.269974 
	C360.339325,82.699791 359.727081,85.279930 361.673737,87.419128 
	C364.461639,90.482712 367.168549,93.619858 369.922394,96.714584 
	C378.179688,105.994049 386.467865,115.246147 394.697388,124.550163 
	C404.236603,135.334900 413.745972,146.146225 423.230499,156.979080 
	C429.443909,164.075760 435.258972,171.560547 441.894318,178.233246 
	C445.709930,182.070374 447.901337,187.583176 454.165985,189.190262 
	C476.338623,194.878265 488.308868,210.784317 488.336182,233.818832 
	C488.344879,241.144821 488.384277,248.471146 488.324677,255.796616 
	C488.305969,258.098145 488.618256,260.116150 490.868500,261.314911 
	C502.563141,267.544891 509.474518,277.466583 513.000000,290.000000 
	C513.000000,323.020905 513.000000,356.041779 513.000000,389.531342 
M219.499908,494.657043 
	C252.652481,494.654297 285.805328,494.586914 318.957275,494.728088 
	C323.257050,494.746368 324.950623,493.544922 324.734833,489.074799 
	C324.421936,482.592743 324.660370,476.084167 324.661285,469.586884 
	C324.662292,462.364258 324.661133,462.358246 317.637512,462.358429 
	C246.000900,462.360382 174.364304,462.364105 102.727692,462.368164 
	C76.738602,462.369659 50.749168,462.440552 24.760784,462.306427 
	C20.667250,462.285309 19.108818,463.560059 19.278816,467.744965 
	C19.549068,474.397827 19.345448,481.069763 19.349529,487.733643 
	C19.353762,494.642761 19.357542,494.649445 26.080633,494.649841 
	C90.220390,494.653503 154.360138,494.654724 219.499908,494.657043 
M98.482788,333.372925 
	C91.691277,332.751160 85.539772,329.632507 78.722198,327.847870 
	C78.565338,329.462036 78.360306,330.590759 78.359787,331.719574 
	C78.343437,367.382812 78.410370,403.046356 78.262215,438.708954 
	C78.244896,442.875427 79.825478,443.726013 83.560822,443.698517 
	C102.224686,443.561218 120.892204,443.487244 139.553589,443.743805 
	C144.436127,443.810944 145.763901,442.220123 145.740585,437.469849 
	C145.569519,402.640686 145.659271,367.810303 145.615509,332.980316 
	C145.613342,331.257904 146.306778,329.293365 144.651459,327.842957 
	C142.803299,327.644348 141.481644,328.837280 139.961472,329.410248 
	C126.786270,334.376038 113.264107,335.800812 98.482788,333.372925 
M244.319489,145.352859 
	C227.467377,136.108612 216.390121,121.884941 210.316513,106.345657 
	C185.028214,131.531189 159.426193,157.029175 133.876480,182.475082 
	C155.283279,188.741577 171.858932,202.526230 182.107498,223.469131 
	C206.721298,198.750610 230.630920,174.739243 254.639648,150.628357 
	C251.642395,149.154663 248.263107,147.493118 244.319489,145.352859 
M58.813313,232.216537 
	C45.052956,262.790436 57.794228,296.517517 88.469444,310.718567 
	C116.980164,323.917572 151.948151,310.649750 165.478149,280.990753 
	C178.866013,251.643372 165.544357,217.507233 136.922623,203.882874 
	C108.065300,190.146408 73.812248,202.190201 58.813313,232.216537 
M295.613312,135.169464 
	C296.865204,134.716736 298.091766,134.169907 299.372742,133.825226 
	C325.245819,126.862953 345.481110,97.392776 340.782227,69.650795 
	C335.352264,37.592621 308.035431,15.570168 275.010254,19.588255 
	C244.420898,23.309977 221.289429,51.391396 224.291580,82.640221 
	C226.308426,103.633179 236.778046,119.036140 254.871918,129.313049 
	C267.321381,136.384064 280.763489,138.251404 295.613312,135.169464 
M320.012085,146.182526 
	C317.449738,147.880478 319.515656,149.071014 320.623810,149.991470 
	C325.341614,153.910309 330.156403,157.713623 334.971375,161.514008 
	C350.186890,173.523331 365.394928,185.542404 380.653687,197.496643 
	C388.307465,203.492859 396.064911,209.356781 404.163544,215.578690 
	C409.001007,204.195251 417.065430,196.587936 427.334930,190.912918 
	C402.977295,163.334244 379.014343,136.202469 354.687042,108.658134 
	C349.672882,116.372177 345.970490,123.804939 340.243439,129.890808 
	C334.383514,136.117905 327.700928,141.241608 320.012085,146.182526 
M493.832031,293.641907 
	C491.880005,283.631409 481.795593,275.415527 471.240234,275.382660 
	C454.073853,275.329193 436.896790,275.726746 419.744202,275.235596 
	C407.437775,274.883148 394.405304,284.908386 394.359039,300.385071 
	C394.295258,321.718018 394.332428,343.051331 394.370514,364.384399 
	C394.373077,365.807953 393.857391,367.373322 395.329102,369.061157 
	C398.188751,367.711761 401.069794,366.103607 404.126556,364.969116 
	C408.529144,363.335205 409.837402,360.488800 409.765106,355.808929 
	C409.484497,337.646759 409.626465,319.477600 409.665222,301.311188 
	C409.680969,293.935822 412.956329,290.665771 420.232056,290.657166 
	C436.398560,290.638062 452.565155,290.638733 468.731659,290.664978 
	C476.766235,290.678009 479.334869,293.313385 479.342743,301.520264 
	C479.360382,319.853455 479.339996,338.186615 479.364868,356.519775 
	C479.367523,358.475983 478.780792,360.849365 480.739807,362.083923 
	C484.737061,364.602936 488.881409,366.930939 493.319366,368.134705 
	C495.137665,365.897461 494.623932,363.816101 494.627991,361.876160 
	C494.670807,341.376434 494.676086,320.876526 494.641357,300.376770 
	C494.638000,298.398865 494.295990,296.421570 493.832031,293.641907 
M432.655457,210.149185 
	C425.933228,214.231659 421.093445,219.921234 420.507416,227.873199 
	C419.897919,236.143753 420.411682,244.493790 420.323303,252.807892 
	C420.294037,255.560776 421.379761,256.687317 424.157471,256.674591 
	C437.960266,256.611359 451.763702,256.605957 465.566345,256.682343 
	C468.576019,256.698975 469.721985,255.462265 469.673248,252.505997 
	C469.569061,246.188293 469.647675,239.867584 469.649780,233.548111 
	C469.656586,213.200058 450.687897,201.169601 432.655457,210.149185 
z"/>
<path fill="#000000" opacity="1.000000" stroke="none" 
	d="
M103.088547,428.336975 
	C96.235825,426.928406 93.808090,424.283539 93.727661,417.259216 
	C93.546913,401.473267 93.510208,385.681183 93.776062,369.897675 
	C93.844292,365.847198 94.710052,361.515076 99.280357,359.533020 
	C102.742531,358.031525 105.921600,358.381561 109.115326,360.560181 
	C111.850578,362.426056 112.337349,364.988831 112.337730,367.897949 
	C112.339951,384.849365 112.368935,401.800842 112.319321,418.752106 
	C112.300529,425.175415 110.009285,427.572815 103.088547,428.336975 
z"/>
<path fill="#000000" opacity="1.000000" stroke="none" 
	d="
M193.007507,172.007782 
	C188.285965,176.727814 183.844513,181.228455 179.334625,185.659454 
	C174.545532,190.364761 168.863373,190.750717 164.776291,186.736557 
	C161.372696,183.393723 161.564804,176.703629 165.736343,172.329315 
	C173.312393,164.384995 181.168976,156.707947 188.921417,148.932236 
	C191.740356,146.104813 194.539658,143.254028 197.447830,140.520172 
	C202.475845,135.793564 208.714081,135.466125 212.580063,139.622711 
	C216.537689,143.877777 215.946213,149.050598 210.902466,154.107025 
	C205.027267,159.997040 199.139694,165.874710 193.007507,172.007782 
z"/>
<path fill="#000000" opacity="1.000000" stroke="none" 
	d="
M154.073730,246.476715 
	C156.673096,258.038239 154.976212,268.498688 149.660660,278.643738 
	C142.046143,293.176544 121.509995,303.290680 105.356972,300.069916 
	C85.793327,296.169128 73.275436,284.631714 69.306183,265.083893 
	C65.559273,246.631104 73.835251,228.738724 90.148102,219.440262 
	C105.735191,210.555496 121.151390,211.841461 135.979935,220.684860 
	C145.461945,226.339691 151.174561,235.331345 154.073730,246.476715 
M134.892593,248.610809 
	C132.956451,243.505692 129.733902,239.496185 125.120300,236.491913 
	C115.810936,230.429932 105.916779,231.007614 96.152603,238.366714 
	C88.560555,244.088730 85.446045,255.010117 88.603798,264.837341 
	C91.466499,273.746338 101.755424,281.380707 111.158539,281.652069 
	C127.083054,282.111542 141.342102,265.065887 134.892593,248.610809 
z"/>
<path fill="#000000" opacity="1.000000" stroke="none" 
	d="
M286.529236,121.056732 
	C264.544830,122.601227 244.671448,108.378525 240.209946,87.543312 
	C234.189194,59.426338 255.371735,34.631790 281.865662,34.437031 
	C303.439331,34.278442 321.172638,49.174141 325.120880,68.334244 
	C330.305298,93.493683 312.928284,119.052162 287.897552,120.601913 
	C287.580139,120.621567 287.273987,120.822426 286.529236,121.056732 
M299.897034,60.610035 
	C296.879608,58.296398 294.105865,55.602833 290.324799,54.481140 
	C272.503021,49.194111 255.599594,63.319714 258.545380,81.711464 
	C260.741791,95.424576 272.298920,103.185333 283.879333,102.391266 
	C293.581512,101.725998 301.180084,96.525368 305.133240,87.337944 
	C309.271454,77.720398 307.092407,68.939903 299.897034,60.610035 
z"/>
</svg>